<?xml version="1.0" standalone="no"?>
<!DOCTYPE svg PUBLIC "-//W3C//DTD SVG 20010904//EN"
 "http://www.w3.org/TR/2001/REC-SVG-20010904/DTD/svg10.dtd">
<svg version="1.0" xmlns="http://www.w3.org/2000/svg"
 width="338.000000pt" height="209.000000pt" viewBox="0 0 338.000000 209.000000"
 preserveAspectRatio="xMidYMid meet">

<g transform="translate(0.000000,209.000000) scale(0.100000,-0.100000)"
fill="#000000" stroke="none">
<path d="M658 1933 l-108 -108 -73 73 c-40 39 -76 72 -80 72 -4 0 -7 -69 -7
-153 l0 -152 -150 -150 -150 -150 1 -650 c1 -357 5 -625 9 -595 5 30 8 323 9
650 l1 595 133 133 c73 72 136 132 140 132 4 0 7 -355 7 -790 l0 -790 540 0
540 0 -1 148 c0 81 -4 156 -9 167 -5 12 -9 -40 -9 -137 l-1 -158 -260 0 -260
0 -2 233 -3 232 -147 3 -148 3 0 -236 0 -235 -110 0 -110 0 0 798 0 798 68 67
68 67 267 -267 267 -268 0 -277 c0 -179 4 -278 10 -278 6 0 10 101 10 282 l0
283 -270 270 -270 270 105 105 105 105 340 -340 340 -340 0 -145 c0 -97 3
-140 10 -130 5 8 10 74 10 145 l0 130 -348 348 c-191 191 -349 347 -352 347
-3 0 -53 -48 -112 -107z m-165 -72 l47 -45 -57 -58 c-32 -32 -61 -58 -65 -58
-4 0 -8 52 -8 116 0 132 -6 129 83 45z m417 -1545 c0 -113 4 -215 9 -228 l9
-23 -147 0 -146 0 3 215 c1 118 4 221 7 228 3 9 40 12 135 12 l130 0 0 -204z"/>
<path d="M1810 878 c-13 -5 -28 -14 -32 -21 -4 -7 -8 -59 -8 -117 0 -124 11
-150 65 -150 18 0 41 7 49 16 32 31 33 94 2 94 -8 0 -16 -15 -20 -35 -5 -25
-12 -35 -25 -35 -26 0 -31 19 -31 115 0 64 4 86 16 96 14 11 18 10 30 -6 8
-10 14 -25 14 -32 0 -18 29 -17 36 1 9 24 -19 69 -46 76 -14 4 -37 3 -50 -2z"/>
<path d="M1995 878 c-32 -18 -35 -28 -35 -138 0 -125 11 -150 66 -150 62 0 74
24 74 144 0 84 -3 108 -17 124 -22 26 -62 35 -88 20z m55 -47 c11 -21 14 -142
4 -179 -5 -16 -13 -22 -28 -20 -19 3 -21 10 -24 88 -2 47 0 95 3 108 7 27 31
29 45 3z"/>
<path d="M1210 735 c0 -137 1 -145 20 -145 17 0 19 8 22 88 l3 87 14 -87 c12
-80 15 -88 35 -88 21 0 24 8 37 88 l14 87 3 -87 c3 -80 5 -88 22 -88 19 0 20
8 20 145 l0 145 -30 0 c-16 0 -30 -1 -30 -2 0 -13 -30 -172 -33 -175 -3 -2
-10 25 -16 59 -24 126 -20 118 -52 118 l-29 0 0 -145z"/>
<path d="M1470 735 c0 -138 1 -145 20 -145 17 0 20 7 20 43 0 63 15 79 33 35
8 -19 18 -44 21 -56 5 -14 16 -22 31 -22 l23 0 -18 48 c-10 26 -25 63 -33 82
-14 33 -14 37 14 92 35 68 34 68 9 68 -15 0 -28 -16 -47 -57 l-28 -58 -3 58
c-3 49 -6 57 -22 57 -19 0 -20 -8 -20 -145z"/>
<path d="M2160 736 c0 -123 2 -146 15 -146 11 0 15 13 16 53 1 28 4 66 8 82 6
25 9 18 22 -50 12 -69 17 -80 34 -80 17 0 22 12 35 80 l15 80 5 -80 c4 -66 8
-80 23 -83 16 -3 17 9 17 142 l0 146 -29 0 c-34 0 -36 -6 -47 -95 -11 -101
-19 -106 -33 -19 -7 43 -13 86 -14 94 -1 9 -15 16 -35 18 l-32 3 0 -145z"/>
<path d="M2420 735 c0 -138 1 -145 20 -145 18 0 20 7 20 55 0 47 3 55 19 55
10 0 30 9 45 21 22 17 26 28 26 73 0 67 -18 86 -83 86 l-47 0 0 -145z m88 67
c4 -35 -11 -62 -34 -62 -10 0 -14 14 -14 51 0 47 2 50 23 47 17 -2 23 -11 25
-36z"/>
<path d="M2630 853 c0 -16 -9 -77 -19 -138 -10 -60 -17 -113 -14 -117 9 -16
32 -7 35 15 2 17 11 23 34 25 27 3 33 -1 38 -22 4 -18 13 -26 27 -26 19 0 21
4 16 33 -3 17 -13 83 -24 144 l-18 113 -37 0 c-35 0 -38 -2 -38 -27z m55 -120
c6 -49 5 -53 -14 -53 -23 0 -25 9 -14 85 7 55 18 43 28 -32z"/>
<path d="M2800 735 c0 -138 1 -145 20 -145 19 0 20 7 21 103 0 113 5 111 40
-20 19 -75 24 -83 45 -83 l24 0 0 145 c0 137 -1 145 -20 145 -17 0 -19 -8 -22
-77 -3 -75 -3 -77 -15 -43 -7 19 -17 54 -23 78 -10 37 -14 42 -40 42 l-30 0 0
-145z"/>
<path d="M3004 858 c27 -93 56 -215 56 -239 0 -22 5 -29 19 -29 15 0 19 11 24
73 3 39 15 99 26 131 26 72 26 86 3 86 -14 0 -22 -13 -31 -52 -20 -77 -23 -78
-40 -12 -13 49 -20 60 -40 62 -21 3 -23 1 -17 -20z"/>
<path d="M1670 610 c0 -13 7 -20 20 -20 13 0 20 7 20 20 0 13 -7 20 -20 20
-13 0 -20 -7 -20 -20z"/>
<path d="M1937 373 c-3 -5 -8 -27 -12 -50 -5 -35 -4 -44 10 -49 22 -9 60 29
52 50 -9 22 -26 20 -21 -1 5 -21 -12 -51 -22 -41 -3 4 -3 15 1 25 16 38 9 94
-8 66z"/>
<path d="M2190 370 c0 -5 5 -10 10 -10 6 0 10 5 10 10 0 6 -4 10 -10 10 -5 0
-10 -4 -10 -10z"/>
<path d="M2266 341 c-3 -22 -9 -46 -12 -55 -4 -11 -1 -16 11 -16 9 0 15 6 12
13 -2 6 2 31 8 55 11 34 11 42 0 42 -7 0 -15 -17 -19 -39z"/>
<path d="M2400 371 c0 -5 -7 -17 -16 -25 -8 -9 -10 -16 -4 -16 7 0 8 -6 2 -17
-5 -10 -7 -24 -5 -30 9 -24 20 -13 27 26 3 22 9 46 12 55 3 9 1 16 -5 16 -6 0
-11 -4 -11 -9z"/>
<path d="M2480 370 c0 -5 5 -10 10 -10 6 0 10 5 10 10 0 6 -4 10 -10 10 -5 0
-10 -4 -10 -10z"/>
<path d="M2049 338 c-6 -26 -7 -68 0 -68 9 0 21 33 21 58 0 10 -18 18 -21 10z"/>
<path d="M2093 320 c-7 -10 -10 -26 -7 -35 11 -27 24 -16 24 20 0 41 -1 42
-17 15z"/>
<path d="M2179 338 c-6 -27 -4 -68 4 -65 13 4 20 67 7 67 -6 0 -10 -1 -11 -2z"/>
<path d="M2469 338 c-7 -28 -4 -68 4 -65 14 4 21 67 8 67 -6 0 -11 -1 -12 -2z"/>
<path d="M2559 338 c0 -2 -3 -19 -5 -38 l-5 -35 20 24 c18 24 18 51 0 51 -5 0
-9 -1 -10 -2z"/>
<path d="M2599 338 c-7 -29 -4 -68 5 -65 14 5 21 67 7 67 -6 0 -11 -1 -12 -2z"/>
<path d="M2693 328 c-15 -18 -23 -87 -12 -93 5 -3 6 1 3 9 -4 11 0 16 15 16
12 0 21 -5 21 -11 0 -5 5 -7 12 -3 8 5 5 13 -10 25 -17 13 -19 18 -8 22 8 3
20 15 26 26 9 19 8 21 -13 21 -14 0 -29 -6 -34 -12z m27 -13 c0 -8 -4 -15 -10
-15 -5 0 -10 7 -10 15 0 8 5 15 10 15 6 0 10 -7 10 -15z"/>
<path d="M2339 309 c-14 -27 4 -50 23 -31 9 9 9 12 -1 12 -8 0 -10 7 -6 20 8
26 -1 26 -16 -1z"/>
</g>
</svg>
