<?xml version="1.0" encoding="UTF-8"?>
<svg id="_Слой_1" data-name="Слой_1" xmlns="http://www.w3.org/2000/svg" version="1.1" viewBox="0 0 1080 500">
  <!-- Generator: Adobe Illustrator 30.2.1, SVG Export Plug-In . SVG Version: 2.1.1 Build 1)  -->
  <defs>
    <style>
      .st0 {
        fill: #2b262c;
      }
    </style>
  </defs>
  <polygon class="st0" points="224.87 260.03 224.87 190.1 190.7 220.62 101.03 168.73 101.03 256.36 127.21 246.73 127.21 218.01 169.4 239.96 101.03 291.84 101.03 322.91 127.21 322.91 198.69 322.91 224.87 322.91 224.87 294.61 198.69 294.61 133.2 294.61 198.69 250.6 198.69 281.23 224.87 260.03"/>
  <g>
    <polygon class="st0" points="341.73 313.62 341.73 267.33 324.28 303.97 308.72 303.97 291.27 267.33 291.27 313.62 270.74 313.62 270.74 216.41 291.41 216.41 316.5 272.09 341.59 216.41 362.26 216.41 362.26 313.62 341.73 313.62"/>
    <path class="st0" d="M343.09,312.25v-50.95l-19.66,41.3h-13.85l-19.66-41.3v50.95h-17.81v-94.48h18.43l25.97,57.63,25.97-57.63h18.43v94.48h-17.81Z"/>
    <polygon class="st0" points="428 313.62 398.61 275.79 398.61 313.62 377.71 313.62 377.71 216.41 398.61 216.41 398.61 251.76 424.01 216.41 448.08 216.41 448.08 218.98 414.19 263.14 452.66 311.03 452.66 313.62 428 313.62"/>
    <path class="st0" d="M428.66,312.25l-31.41-40.44v40.44h-18.18v-94.48h18.18v38.21l27.45-38.21h22.01v.74l-34.26,44.64,38.83,48.35v.74h-22.63Z"/>
    <path class="st0" d="M494.7,313.62v-97.2h65.42c6.03,0,9.77,3.89,9.77,10.14v23c0,4.62-1.6,7.37-5.52,9.47l-7.35,4.35,7.98,4.53c4.05,2.17,5.64,4.83,5.64,9.47v26.09c0,6.26-3.84,10.14-10.02,10.14h-65.91ZM549.61,296.42v-19.14l-9.78-5.96h-24.23v25.1h34.01ZM539.68,255.49l9.19-6.05v-15.84h-33.26v21.89h24.08Z"/>
    <path class="st0" d="M560.61,312.25h-64.55v-94.48h64.06c5.32,0,8.41,3.34,8.41,8.78v23c0,4.2-1.36,6.43-4.82,8.29l-9.4,5.57,10.02,5.69c3.46,1.86,4.95,3.96,4.95,8.29v26.09c0,5.44-3.22,8.78-8.66,8.78ZM550.23,232.24h-35.99v24.61h25.85l10.14-6.68v-17.93ZM550.97,276.52l-10.76-6.55h-25.97v27.82h36.73v-21.27Z"/>
    <path class="st0" d="M594.5,313.99c-5.89,0-9.4-3.38-9.4-9.03v-55.03h20.41v46.4l21.39-1.43v-44.98h20.53v63.69h-20.53v-3.17l-27.28,3.16c-1.8.26-3.48.38-5.12.38Z"/>
    <path class="st0" d="M628.26,312.25v-3.34l-28.81,3.34c-1.73.25-3.34.37-4.95.37-5.19,0-8.04-2.84-8.04-7.67v-53.67h17.68v46.5l24.11-1.61v-44.89h17.81v60.97h-17.81Z"/>
    <path class="st0" d="M661.27,313.62v-63.69h20.41v63.69h-20.41ZM661.15,244.61v-18.8h20.65v18.8h-20.65Z"/>
    <path class="st0" d="M662.51,243.25v-16.08h17.93v16.08h-17.93ZM662.64,312.25v-60.97h17.68v60.97h-17.68Z"/>
    <rect class="st0" x="695.78" y="216.41" width="20.41" height="97.2"/>
    <path class="st0" d="M697.14,312.25v-94.48h17.68v94.48h-17.68Z"/>
    <path class="st0" d="M744.99,314.11c-9.51,0-14.96-5.23-14.96-14.35v-35.12c0-10.04,5.07-14.72,15.95-14.72h25.97v-33.51h20.41v97.2h-20.41v-3.02l-21.21,2.88c-.94.15-4.22.63-5.75.63ZM754.27,266.13c-3.27,0-3.71.72-3.71,3.58v24.24c0,2.88.68,3.34,2.84,3.34.8,0,2.01,0,2.78-.11h.06s15.71-1.5,15.71-1.5v-29.55h-17.68Z"/>
    <path class="st0" d="M773.31,312.25v-3.22l-22.75,3.09c-1.61.25-4.33.62-5.57.62-8.78,0-13.6-4.58-13.6-12.98v-35.12c0-9.27,4.45-13.36,14.59-13.36h27.33v-33.51h17.68v94.48h-17.68ZM773.31,264.77h-19.04c-3.96,0-5.07,1.24-5.07,4.95v24.24c0,3.46,1.11,4.7,4.2,4.7.87,0,2.1,0,2.97-.12l16.94-1.61v-32.15Z"/>
    <path class="st0" d="M806.33,313.62v-63.69h20.41v63.69h-20.41ZM806.21,244.61v-18.8h20.65v18.8h-20.65Z"/>
    <path class="st0" d="M807.57,243.25v-16.08h17.93v16.08h-17.93ZM807.69,312.25v-60.97h17.68v60.97h-17.68Z"/>
    <path class="st0" d="M882.51,313.62v-46.4l-21.27,1.43v44.98h-20.53v-63.69h20.53v3.3l27.28-3.16c1.78-.25,3.46-.38,5-.38,5.87,0,9.52,3.41,9.52,8.9v55.03h-20.53Z"/>
    <path class="st0" d="M883.87,312.25v-46.5l-23.99,1.61v44.89h-17.81v-60.97h17.81v3.46l28.81-3.34c1.73-.25,3.34-.37,4.82-.37,5.19,0,8.16,2.84,8.16,7.54v53.67h-17.81Z"/>
    <path class="st0" d="M927.65,335.88c-6.4,0-9.65-3.12-9.65-9.28v-11.87h20.04v6.93h20.53v-9.52h-26.22c-10.72,0-15.71-4.68-15.71-14.72v-33.39c0-9.25,5.27-14.35,14.84-14.35,1.96,0,4.38.26,5.91.51l21.17,2.99v-3.26h20.41v76.67c0,6.24-3.16,9.28-9.65,9.28h-41.68ZM940.38,266.25c-2.61,0-3.21.65-3.21,3.46v23.5c0,3.27.75,3.71,3.71,3.71h17.68v-28.82l-14.41-1.49h-.05c-1.26-.24-2.54-.36-3.71-.36Z"/>
    <path class="st0" d="M969.32,334.51h-41.68c-5.69,0-8.29-2.47-8.29-7.91v-10.51h17.31v6.93h23.25v-12.24h-27.58c-10.02,0-14.35-4.08-14.35-13.36v-33.39c0-8.53,4.7-12.98,13.48-12.98,1.86,0,4.2.25,5.69.49l22.75,3.22v-3.46h17.68v75.31c0,5.44-2.47,7.91-8.29,7.91ZM959.92,266.87l-15.58-1.61c-1.36-.25-2.72-.37-3.96-.37-3.46,0-4.58,1.36-4.58,4.82v23.5c0,3.83,1.11,5.07,5.07,5.07h19.04v-31.41Z"/>
  </g>
</svg>